# File created by Blade
# Date/Time:  Wed Jan 28 16:58:26 2015
#---------------------------------------------------------
:version 1.10
:name HOM
:units
  mass 1.0
  length 1.000000
  angle deg
:documentation
     Acclaim Skeleton File
:root
   axis xyz
   order TX TY TZ RX RY RZ
   position 0.000000 0.000000 0.000000
   orientation 0 0 0
:bonedata
   begin
      id 1
      name Spine_dum
      direction 0.000000 1.000000 0.000000
      length 9.621153
      axis 0.0 0.0 0.0 xyz
   end
   begin
      id 2
      name LeftUpLeg_dum
      direction 1.000000 0.000000 0.000000
      length 2.700595
      axis 0.0 0.0 0.0 xyz
   end
   begin
      id 3
      name RightUpLeg_dum
      direction -1.000000 0.000000 0.000000
      length 2.700595
      axis 0.0 0.0 0.0 xyz
   end
   begin
      id 4
      name Spine
      direction 0.000000 1.000000 0.000000
      length 0.000000
      axis 0.0 0.0 0.0 xyz
      dof rx ry rz
   end
   begin
      id 5
      name Spine_dum1
      direction 0.000000 1.000000 0.000000
      length 12.771951
      axis 0.0 0.0 0.0 xyz
   end
   begin
      id 6
      name Spine_dum2
      direction 0.000000 1.000000 0.000000
      length 7.400569
      axis 0.0 0.0 0.0 xyz
   end
   begin
      id 7
      name Spine_dum3
      direction 0.000000 1.000000 0.000000
      length 7.400569
      axis 0.0 0.0 0.0 xyz
   end
   begin
      id 8
      name Head
      direction 0.000000 1.000000 0.000000
      length 4.527550
      axis 0.0 0.0 0.0 xyz
      dof rx ry rz
   end
   begin
      id 9
      name LeftShoulder
      direction 1.000000 0.000000 0.000000
      length 8.349299
      axis 0.0 0.0 -90.0 xyz
      dof rx ry rz
   end
   begin
      id 10
      name LeftArm
      direction 1.000000 0.000000 0.000000
      length 11.334839
      axis 0.0 0.0 -90.0 xyz
      dof rx ry rz
   end
   begin
      id 11
      name LeftForeArm
      direction 1.000000 0.000000 0.000000
      length 9.694182
      axis 0.0 0.0 -90.0 xyz
      dof ry rz rx
   end
   begin
      id 12
      name LeftHand
      direction 0.000000 0.000000 0.000000
      length 0.000000
      axis 0.0 0.0 -90.0 xyz
      dof rx ry rz
   end
   begin
      id 13
      name LeftHand_dum1
      direction 0.000000 0.000000 0.000000
      length 0.000000
      axis 0.0 0.0 -90.0 xyz
   end
   begin
      id 14
      name LeftHand_dum2
      direction 1.000000 0.000000 0.000000
      length 3.937000
      axis 0.0 0.0 -90.0 xyz
   end
   begin
      id 15
      name LeftHandThumb1
      direction 0.000000 0.000000 1.000000
      length 3.937000
      axis 0.0 0.0 -90.0 xyz
      dof rx rz ry
   end
   begin
      id 16
      name RightShoulder
      direction -1.000000 0.000000 0.000000
      length 8.349299
      axis 0.0 0.0 90.0 xyz
      dof rx ry rz
   end
   begin
      id 17
      name RightArm
      direction -1.000000 0.000000 0.000000
      length 11.334839
      axis 0.0 0.0 90.0 xyz
      dof rx ry rz
   end
   begin
      id 18
      name RightForeArm
      direction -1.000000 0.000000 0.000000
      length 9.694182
      axis 0.0 0.0 90.0 xyz
      dof ry rz rx
   end
   begin
      id 19
      name RightHand
      direction 0.000000 0.000000 0.000000
      length 0.000000
      axis 0.0 0.0 90.0 xyz
      dof rx ry rz
   end
   begin
      id 20
      name RightHand_dum1
      direction 0.000000 0.000000 0.000000
      length 0.000000
      axis 0.0 0.0 90.0 xyz
   end
   begin
      id 21
      name RightHand_dum2
      direction -1.000000 0.000000 0.000000
      length 3.937000
      axis 0.0 0.0 90.0 xyz
   end
   begin
      id 22
      name RightHandThumb1
      direction 0.000000 0.000000 1.000000
      length 3.937000
      axis 0.0 0.0 90.0 xyz
      dof rx rz ry
   end
   begin
      id 23
      name LeftUpLeg
      direction 0.000000 -1.000000 0.000000
      length 16.757176
      axis 0.0 0.0 0.0 xyz
      dof rx ry rz
   end
   begin
      id 24
      name LeftLeg
      direction 0.000000 -1.000000 0.000000
      length 16.759153
      axis 0.0 0.0 0.0 xyz
      dof rx ry rz
   end
   begin
      id 25
      name LeftFoot
      direction 0.000000 -0.258819 0.965926
      length 5.841289
      axis 15.0 0.0 0.0 xyz
      dof rx ry rz
   end
   begin
      id 26
      name LeftToeBase
      direction 0.000000 0.000000 1.000000
      length 2.952750
      axis 0.0 0.0 0.0 xyz
      dof rx ry rz
   end
   begin
      id 27
      name RightUpLeg
      direction 0.000000 -1.000000 0.000000
      length 16.757176
      axis 0.0 0.0 0.0 xyz
      dof rx ry rz
   end
   begin
      id 28
      name RightLeg
      direction 0.000000 -1.000000 0.000000
      length 16.759153
      axis 0.0 0.0 0.0 xyz
      dof rx ry rz
   end
   begin
      id 29
      name RightFoot
      direction 0.000000 -0.258819 0.965926
      length 5.841289
      axis 15.0 0.0 0.0 xyz
      dof rx ry rz
   end
   begin
      id 30
      name RightToeBase
      direction 0.000000 0.000000 1.000000
      length 2.952750
      axis 0.0 0.0 0.0 xyz
      dof rx ry rz
   end
:hierarchy
   begin
      root Spine_dum LeftUpLeg_dum RightUpLeg_dum
      Spine_dum Spine
      LeftUpLeg_dum LeftUpLeg
      RightUpLeg_dum RightUpLeg
      Spine Spine_dum1 Spine_dum2 Spine_dum3
      Spine_dum1 Head
      Spine_dum2 LeftShoulder
      Spine_dum3 RightShoulder
      LeftShoulder LeftArm
      LeftArm LeftForeArm
      LeftForeArm LeftHand
      LeftHand LeftHand_dum1 LeftHand_dum2
      LeftHand_dum1 LeftHandThumb1
      RightShoulder RightArm
      RightArm RightForeArm
      RightForeArm RightHand
      RightHand RightHand_dum1 RightHand_dum2
      RightHand_dum1 RightHandThumb1
      LeftUpLeg LeftLeg
      LeftLeg LeftFoot
      LeftFoot LeftToeBase
      RightUpLeg RightLeg
      RightLeg RightFoot
      RightFoot RightToeBase
   end

# File created by Blade
# Date/Time:  Wed Jan 28 16:58:32 2015
# Frame Rate: 120.000 fps
#------------------------------------------------------
:FULLY-SPECIFIED
:DEGREES
3622
root 13.344247 37.428874 -18.436099 251.987173 48.041759 -118.839630
Spine 22.375649 -5.376703 19.022072
Head 21.383167 12.660985 39.626071
LeftShoulder -10.161239 7.051706 24.017770
LeftArm 32.734848 -46.583718 -61.783901
LeftForeArm -16.165436 -0.000000 109.664404
LeftHand -11.773868 -0.000000 30.591361
LeftHandThumb1 -26.253704 0.000000 33.147579
RightShoulder -24.981530 -8.597607 -1.493665
RightArm 7.912455 -9.741538 71.123184
RightForeArm 3.335596 0.000000 37.103494
RightHand -12.494671 -0.000000 -5.650801
RightHandThumb1 -24.326973 -0.000000 -32.862282
LeftUpLeg -25.609845 34.254484 17.574347
LeftLeg 8.272088 -0.000000 -0.000000
LeftFoot -13.726664 20.509018 -12.514743
LeftToeBase 12.259681 -0.000000 -0.000000
RightUpLeg -34.059681 -12.223275 -19.713839
RightLeg 131.574500 -0.000000 -0.000000
RightFoot 4.907040 -1.119089 17.447250
RightToeBase -4.444783 -0.000000 0.000000
3623
root 13.360415 37.441929 -18.401424 251.698335 47.682950 -119.133819
Spine 22.444848 -5.281885 19.166894
Head 21.079060 12.424142 40.005026
LeftShoulder -10.241615 7.042844 24.112093
LeftArm 32.750618 -46.758364 -61.635809
LeftForeArm -16.509873 0.000000 110.012111
LeftHand -11.853213 0.000000 30.585908
LeftHandThumb1 -26.253704 0.000000 33.147579
RightShoulder -25.128179 -8.646308 -1.458057
RightArm 7.691233 -8.842191 71.339864
RightForeArm 3.952038 0.000000 37.648245
RightHand -12.843554 -0.000000 -7.051802
RightHandThumb1 -24.326973 -0.000000 -32.862282
LeftUpLeg -25.686089 34.087814 17.819427
LeftLeg 8.229589 -0.000000 -0.000000
LeftFoot -13.536092 20.560160 -12.384790
LeftToeBase 12.028850 -0.000000 -0.000000
RightUpLeg -33.427210 -12.487774 -20.880211
RightLeg 131.941076 -0.000000 -0.000000
RightFoot 5.409373 -1.041776 17.679570
RightToeBase -4.424361 -0.000000 0.000000
3624
root 13.374708 37.450449 -18.374088 251.396351 47.340551 -119.440325
Spine 22.553999 -5.245785 19.310278
Head 20.753546 12.277690 40.283232
LeftShoulder -10.396755 6.989823 24.132208
LeftArm 32.747963 -46.950018 -61.427202
LeftForeArm -17.008029 -0.000000 110.336993
LeftHand -11.780383 0.000000 30.538488
LeftHandThumb1 -26.253704 0.000000 33.147579
RightShoulder -25.221469 -8.482022 -1.537114
RightArm 7.304312 -8.054762 71.476619
RightForeArm 4.650317 0.000000 38.210672
RightHand -12.639050 0.000000 -8.192858
RightHandThumb1 -24.326973 -0.000000 -32.862282
LeftUpLeg -25.748658 33.924291 18.034413
LeftLeg 8.165362 -0.000000 -0.000000
LeftFoot -13.364854 20.536378 -12.216907
LeftToeBase 11.867306 -0.000000 -0.000000
RightUpLeg -32.625859 -12.780241 -22.113206
RightLeg 132.240828 -0.000000 -0.000000
RightFoot 5.589351 -1.053790 17.778133
RightToeBase -4.384063 -0.000000 0.000000
3625
root 13.385505 37.461601 -18.346786 251.169527 46.997123 -119.714684
Spine 22.602682 -5.169934 19.454532
Head 20.538143 12.144493 40.619643
LeftShoulder -10.524610 6.928150 24.167768
LeftArm 32.655458 -47.162541 -61.172674
LeftForeArm -17.444728 -0.000000 110.710650
LeftHand -11.802323 0.000000 30.481114
LeftHandThumb1 -26.253704 0.000000 33.147579
RightShoulder -25.266444 -8.464190 -1.524830
RightArm 7.010263 -7.164958 71.517615
RightForeArm 5.409622 -0.000000 38.873748
RightHand -12.396562 -0.000000 -9.089183
RightHandThumb1 -24.326973 -0.000000 -32.862282
LeftUpLeg -25.841305 33.777562 18.238635
LeftLeg 8.077556 -0.000000 -0.000000
LeftFoot -13.185892 20.503760 -12.097589
LeftToeBase 11.650930 -0.000000 -0.000000
RightUpLeg -31.865252 -13.057777 -23.369553
RightLeg 132.470908 -0.000000 -0.000000
RightFoot 6.019892 -1.087599 17.665103
RightToeBase -4.729739 -0.000000 0.000000
3626
root 13.394515 37.473024 -18.319723 250.965055 46.633565 -119.984391
Spine 22.591590 -5.074717 19.651068
Head 20.353435 11.910465 40.908822
LeftShoulder -10.599011 6.950212 24.186671
LeftArm 32.703136 -47.444561 -61.094842
LeftForeArm -17.847608 -0.000000 111.085194
LeftHand -11.878868 -0.000000 30.346604
LeftHandThumb1 -26.253704 0.000000 33.147579
RightShoulder -25.263680 -8.467536 -1.583940
RightArm 6.719486 -6.288547 71.530114
RightForeArm 6.101083 -0.000000 39.511987
RightHand -12.180582 -0.000000 -9.903912
RightHandThumb1 -24.326973 -0.000000 -32.862282
LeftUpLeg -25.944091 33.613267 18.454167
LeftLeg 7.952132 -0.000000 -0.000000
LeftFoot -13.038028 20.489824 -12.054974
LeftToeBase 11.480058 -0.000000 -0.000000
RightUpLeg -31.033790 -13.354789 -24.600048
RightLeg 132.657217 -0.000000 -0.000000
RightFoot 5.989876 -1.223098 18.036679
RightToeBase -4.142509 -0.000000 0.000000
3627
root 13.407381 37.488542 -18.290747 250.757064 46.202385 -120.290925
Spine 22.536865 -4.925711 19.931080
Head 20.127465 11.620854 41.246795
LeftShoulder -10.615556 7.006607 24.225393
LeftArm 32.804593 -47.726209 -61.079017
LeftForeArm -18.319408 -0.000000 111.497278
LeftHand -11.904655 -0.000000 30.279326
LeftHandThumb1 -26.253704 0.000000 33.147579
RightShoulder -25.368640 -8.475865 -1.628206
RightArm 6.521128 -5.570883 71.431423
RightForeArm 6.775929 -0.000000 40.143830
RightHand -12.104343 -0.000000 -10.732882
RightHandThumb1 -24.326973 -0.000000 -32.862282
LeftUpLeg -26.149524 33.520354 18.657220
LeftLeg 7.899423 -0.000000 -0.000000
LeftFoot -12.883208 20.358187 -11.996268
LeftToeBase 11.316889 -0.000000 -0.000000
RightUpLeg -30.155949 -13.698103 -25.772137
RightLeg 132.766604 -0.000000 -0.000000
RightFoot 6.251341 -1.412241 18.023661
RightToeBase -4.210375 -0.000000 0.000000
3628
root 13.415746 37.502130 -18.268117 250.566591 45.843223 -120.592059
Spine 22.520524 -4.795546 20.110839
Head 19.912889 11.474203 41.612536
LeftShoulder -10.703022 7.045260 24.249832
LeftArm 32.860463 -48.033011 -61.020082
LeftForeArm -18.805096 -0.000000 111.926522
LeftHand -11.910110 -0.000000 30.279397
LeftHandThumb1 -26.253704 0.000000 33.147579
RightShoulder -25.376278 -8.469152 -1.655416
RightArm 6.254020 -4.646420 71.349073
RightForeArm 7.068882 -0.000000 40.947234
RightHand -12.090868 0.000000 -11.445782
RightHandThumb1 -24.326973 -0.000000 -32.862282
LeftUpLeg -26.327845 33.394220 18.799628
LeftLeg 7.816131 -0.000000 -0.000000
LeftFoot -12.766718 20.309049 -12.019499
LeftToeBase 11.094150 -0.000000 -0.000000
RightUpLeg -29.228597 -14.064470 -27.018720
RightLeg 132.823670 -0.000000 -0.000000
RightFoot 6.449091 -1.661533 17.643815
RightToeBase -4.313136 -0.000000 0.000000
3629
root 13.430666 37.516955 -18.243833 250.385084 45.453494 -120.873487
Spine 22.501591 -4.626378 20.340882
Head 19.655308 11.237587 41.971843
LeftShoulder -10.817049 7.100656 24.262542
LeftArm 33.069284 -48.300400 -61.094856
LeftForeArm -19.348576 -0.000000 112.323762
LeftHand -12.030202 -0.000000 30.231967
LeftHandThumb1 -26.253704 0.000000 33.147579
RightShoulder -25.484168 -8.425928 -1.737838
RightArm 6.081264 -3.982858 71.192491
RightForeArm 7.044196 -0.000000 41.630643
RightHand -12.087505 0.000000 -12.563394
RightHandThumb1 -24.326973 -0.000000 -32.862282
LeftUpLeg -26.498226 33.306009 18.961130
LeftLeg 7.713376 -0.000000 -0.000000
LeftFoot -12.662052 20.280825 -12.010072
LeftToeBase 10.980388 -0.000000 -0.000000
RightUpLeg -28.239557 -14.465894 -28.233149
RightLeg 132.817532 -0.000000 -0.000000
RightFoot 6.501401 -1.933209 17.026189
RightToeBase -3.935223 -0.000000 0.000000
3630
root 13.445080 37.534030 -18.223339 250.264131 45.091454 -121.073839
Spine 22.524662 -4.375757 20.540160
Head 19.353451 11.092522 42.391281
LeftShoulder -10.901349 7.273850 24.340429
LeftArm 33.363212 -48.657182 -61.356795
LeftForeArm -19.862638 -0.000000 112.774687
LeftHand -12.050143 -0.000000 30.144180
LeftHandThumb1 -26.253704 0.000000 33.147579
RightShoulder -25.594772 -8.386952 -1.809001
RightArm 5.956563 -3.342394 71.023970
RightForeArm 6.795465 -0.000000 42.213844
RightHand -12.136535 -0.000000 -13.771326
RightHandThumb1 -24.326973 -0.000000 -32.862282
LeftUpLeg -26.519183 33.082299 19.231385
LeftLeg 7.480302 -0.000000 -0.000000
LeftFoot -12.563481 20.406639 -12.146450
LeftToeBase 10.852703 -0.000000 -0.000000
RightUpLeg -27.254303 -14.808369 -29.407335
RightLeg 132.753949 -0.000000 -0.000000
RightFoot 6.657060 -2.344017 16.410712
RightToeBase -3.883342 -0.000000 0.000000
3631
root 13.456040 37.554930 -18.205108 250.235669 44.740128 -121.163610
Spine 22.582921 -4.063526 20.769812
Head 19.040274 10.939113 42.783232
LeftShoulder -11.017066 7.201713 24.399163
LeftArm 33.424932 -48.901762 -61.417049
LeftForeArm -20.403569 -0.000000 113.220503
LeftHand -12.056510 -0.000000 30.115034
LeftHandThumb1 -26.253704 0.000000 33.147579
RightShoulder -25.678641 -8.301942 -1.891002
RightArm 5.783715 -2.584597 70.824222
RightForeArm 6.469472 -0.000000 43.020839
RightHand -12.564437 -0.000000 -15.121274
RightHandThumb1 -24.326973 -0.000000 -32.862282
LeftUpLeg -26.623221 32.987929 19.485730
LeftLeg 7.423046 -0.000000 -0.000000
LeftFoot -12.436343 20.489464 -12.126962
LeftToeBase 10.658387 -0.000000 -0.000000
RightUpLeg -26.287940 -15.129137 -30.496690
RightLeg 132.652354 -0.000000 -0.000000
RightFoot 6.355010 -2.875607 16.297816
RightToeBase -3.038694 -0.000000 0.000000
3632
root 13.472639 37.576083 -18.185755 250.271805 44.395443 -121.163397
Spine 22.639960 -3.691304 20.994690
Head 18.746541 10.799616 43.242658
LeftShoulder -11.100366 7.279389 24.435644
LeftArm 33.625205 -49.277015 -61.594351
LeftForeArm -21.085753 0.000000 113.705677
LeftHand -12.039283 -0.000000 30.317339
LeftHandThumb1 -26.253704 0.000000 33.147579
RightShoulder -25.804726 -8.222354 -1.993205
RightArm 5.692682 -1.875976 70.613831
RightForeArm 5.925040 -0.000000 43.746449
RightHand -12.687129 -0.000000 -16.438443
RightHandThumb1 -24.326973 -0.000000 -32.862282
LeftUpLeg -26.651467 32.813940 19.855901
LeftLeg 7.364669 -0.000000 -0.000000
LeftFoot -12.401569 20.663071 -12.249175
LeftToeBase 10.498862 -0.000000 -0.000000
RightUpLeg -25.390158 -15.477054 -31.508650
RightLeg 132.529172 -0.000000 -0.000000
RightFoot 6.210134 -3.622181 15.216582
RightToeBase -2.664351 -0.000000 0.000000
3633
root 13.492145 37.599231 -18.167854 250.350119 44.050714 -121.053264
Spine 22.794900 -3.282532 21.253808
Head 18.367389 10.626821 43.644600
LeftShoulder -11.171291 7.181937 24.509382
LeftArm 33.593434 -49.618113 -61.645689
LeftForeArm -21.702504 -0.000000 114.154544
LeftHand -11.811378 -0.000000 30.387690
LeftHandThumb1 -26.253704 0.000000 33.147579
RightShoulder -25.865296 -7.996364 -2.164565
RightArm 5.465215 -1.063972 70.398725
RightForeArm 5.435957 -0.000000 44.526441
RightHand -12.887530 -0.000000 -17.564204
RightHandThumb1 -24.326973 -0.000000 -32.862282
LeftUpLeg -26.584560 32.612530 20.343469
LeftLeg 7.338428 -0.000000 -0.000000
LeftFoot -12.419785 20.854586 -12.423829
LeftToeBase 10.454967 -0.000000 -0.000000
RightUpLeg -24.475690 -15.780384 -32.452162
RightLeg 132.381530 -0.000000 -0.000000
RightFoot 6.009848 -4.354710 14.484501
RightToeBase -1.632840 -0.000000 0.000000
